<svg width="38" height="57" viewBox="0 0 38 57" fill="none" xmlns="http://www.w3.org/2000/svg">
<path d="M22.5195 0C21.0456 0 19.5961 0.842674 18.3833 1.97123C17.1818 3.08922 16.2303 4.50293 15.8747 5.87571C14.9914 8.54556 13.7616 12.4514 12.8683 15.2389L10.3214 23.1616C7.87052 23.6722 5.2674 24.2379 2.94899 24.9243C2.03322 25.1831 1.17543 25.4922 0.421286 25.9478C0.241202 26.0844 0 26.2827 0 26.687C0 27.0408 0.184859 27.2263 0.344691 27.3694C0.991226 27.8918 1.87025 28.1917 2.54685 28.4308C4.56522 29.0952 6.31051 29.5776 8.11928 30.023L1.85748 49.5453C1.73945 49.8537 1.92237 50.2434 2.24046 50.3414C2.55857 50.4395 2.94581 50.2256 3.02558 49.9054L5.95542 40.7887L18.1152 44.5227L18.3833 46.1906C18.4326 46.5088 18.7707 46.7536 19.0921 46.7039C19.4135 46.6541 19.6599 46.319 19.6088 46.001L19.4365 44.9207L22.8451 45.9821L19.628 56.2171C19.5327 56.5247 19.7384 56.881 20.0493 56.9753C20.3601 57.0696 20.72 56.8849 20.8152 56.5773L26.2153 39.4241L35.0623 41.7554L36.7666 51.6492C36.8216 51.9669 37.1638 52.2063 37.4847 52.1517C37.8056 52.0971 38.0474 51.7583 37.9921 51.4408L34.0665 28.5824C34.2289 28.54 34.3932 28.5062 34.5069 28.4687C34.9415 28.3294 35.0392 27.6407 34.6601 27.3883C34.4428 27.2449 34.1291 27.0812 33.7793 26.9145L32.4963 19.4277C33.621 15.8321 34.7724 12.2392 35.8857 8.64296C37.2153 4.00338 33.2834 0 29.2217 0H22.5195ZM22.5195 1.21306H29.2217C32.4551 1.21306 35.8051 4.45826 34.7176 8.30179C34.2882 9.70842 33.8381 11.1213 33.3963 12.5285C29.779 10.8173 26.3228 9.92351 22.6997 9.74887C20.3443 9.63909 17.8568 9.86664 15.7407 10.2162C16.1788 8.87974 16.5941 7.52679 17.0428 6.19796C17.3038 5.15694 18.1573 3.85635 19.2258 2.86207C20.2943 1.86779 21.56 1.21306 22.5195 1.21306ZM22.6402 10.9445C26.1535 11.1052 29.4816 11.9817 33.0324 13.6847C31.8125 17.5253 30.626 21.3109 29.4133 25.1518C26.1938 23.9888 22.6917 22.7838 19.6663 22.0244C19.1339 21.9018 18.7323 21.8349 18.3833 21.8349C17.8202 21.8349 16.6844 22.0021 15.2046 22.2519L14.1322 15.2768L15.3961 11.3155C17.8602 11.0077 20.3004 10.8726 22.6402 10.9445ZM13.2896 17.8924L13.9981 22.4603C13.2574 22.5924 12.5041 22.7365 11.681 22.8963L13.2896 17.8924ZM31.692 22.0244L32.4196 26.3269C31.7792 26.0572 31.1829 25.8272 30.5622 25.5877L31.692 22.0244ZM18.3833 23.0479C18.4939 23.0479 18.8822 23.1041 19.379 23.2185C22.799 24.1084 25.9754 25.1841 29.0494 26.308L28.36 28.4687C25.3046 29.0053 22.2058 29.5031 19.2258 29.9282C17.5666 30.1641 16.2556 30.3262 15.9321 30.3262C15.6428 30.3262 14.3978 30.1343 12.8874 29.8334C9.4213 29.0918 6.23667 28.4215 2.94896 27.2746C2.35286 27.0648 1.89371 26.8726 1.57021 26.706C1.96238 26.5295 2.57301 26.3016 3.3128 26.0805C8.93536 24.6265 13.0622 23.5169 18.3833 23.0479ZM30.1983 26.7439C30.9641 27.0148 31.8066 27.4006 32.4005 27.6916C31.3732 27.9308 30.7394 28.0479 29.7388 28.2223L30.1983 26.7439ZM32.8601 28.8667L34.8325 40.4286L26.5791 38.2489L29.3175 29.5301C30.5233 29.3293 31.7315 29.0991 32.8601 28.8667ZM27.9579 29.7765L25.3919 37.9267L17.9811 35.9745L17.2534 31.4255C17.845 31.3557 18.5708 31.2616 19.4173 31.1412C22.4842 30.6834 25.1343 30.2566 27.9579 29.7765ZM9.30651 30.3072C10.4812 30.5802 11.6378 30.8281 12.6385 31.0275C13.7618 31.1792 14.8884 31.5276 16.0087 31.5393L17.9045 43.1959L6.31923 39.6326L9.30651 30.3072ZM18.2109 37.3013L25.028 39.1018L23.2089 44.8259L19.2258 43.5939L18.2109 37.3013Z" fill="black"/>
</svg>
