<svg width="1200" height="630" viewBox="0 0 1200 630" fill="none" xmlns="http://www.w3.org/2000/svg">
<rect width="1200" height="630" fill="#0A4E9D"/>
<path d="M272.746 268.943H257.893V251.779H272.746V268.943ZM243.864 395.363C250.521 395.143 254.509 394.538 255.83 393.547C257.205 392.612 257.893 389.614 257.893 384.553V285.034H272.746V386.121C272.746 392.557 271.701 397.371 269.61 400.562C266.145 405.953 259.57 408.648 249.888 408.648C249.173 408.648 248.403 408.621 247.578 408.566C246.807 408.511 245.57 408.401 243.864 408.236V395.363ZM301.839 349.482C301.839 353.773 303.407 357.156 306.543 359.632C309.679 362.107 313.392 363.345 317.683 363.345C322.909 363.345 327.97 362.135 332.867 359.714C341.118 355.698 345.244 349.124 345.244 339.992V328.027C343.429 329.182 341.091 330.145 338.23 330.915C335.37 331.685 332.564 332.235 329.813 332.565L320.819 333.721C315.427 334.436 311.384 335.564 308.688 337.104C304.122 339.69 301.839 343.816 301.839 349.482ZM337.818 319.445C341.229 319.005 343.512 317.574 344.667 315.154C345.327 313.833 345.657 311.936 345.657 309.46C345.657 304.399 343.842 300.74 340.211 298.485C336.635 296.174 331.491 295.019 324.78 295.019C317.023 295.019 311.521 297.11 308.276 301.291C306.46 303.601 305.277 307.039 304.727 311.605H290.864C291.139 300.713 294.66 293.149 301.427 288.913C308.248 284.622 316.143 282.476 325.11 282.476C335.507 282.476 343.952 284.457 350.443 288.417C356.88 292.378 360.098 298.54 360.098 306.902V357.816C360.098 359.357 360.401 360.595 361.006 361.53C361.666 362.465 363.014 362.933 365.049 362.933C365.709 362.933 366.452 362.905 367.277 362.85C368.102 362.74 368.983 362.603 369.918 362.438V373.413C367.607 374.073 365.847 374.485 364.637 374.65C363.426 374.815 361.776 374.898 359.685 374.898C354.569 374.898 350.856 373.083 348.545 369.452C347.335 367.526 346.482 364.803 345.987 361.282C342.961 365.243 338.615 368.681 332.949 371.597C327.283 374.513 321.039 375.971 314.217 375.971C306.02 375.971 299.309 373.495 294.082 368.544C288.911 363.538 286.326 357.294 286.326 349.812C286.326 341.615 288.884 335.261 294 330.75C299.116 326.239 305.828 323.461 314.135 322.416L337.818 319.445ZM626.573 345.273C627.013 350.225 628.251 354.021 630.287 356.661C634.028 361.447 640.519 363.84 649.761 363.84C655.263 363.84 660.104 362.658 664.285 360.292C668.466 357.871 670.556 354.158 670.556 349.152C670.556 345.356 668.878 342.468 665.523 340.487C663.377 339.277 659.141 337.874 652.815 336.279L641.014 333.308C633.477 331.438 627.921 329.347 624.345 327.037C617.964 323.021 614.773 317.464 614.773 310.368C614.773 302.006 617.771 295.239 623.768 290.068C629.819 284.897 637.934 282.311 648.111 282.311C661.424 282.311 671.024 286.217 676.91 294.029C680.596 298.98 682.384 304.316 682.274 310.038H668.246C667.971 306.682 666.788 303.629 664.697 300.878C661.287 296.972 655.373 295.019 646.956 295.019C641.344 295.019 637.081 296.092 634.165 298.237C631.304 300.383 629.874 303.216 629.874 306.737C629.874 310.588 631.772 313.668 635.568 315.979C637.768 317.354 641.014 318.565 645.305 319.61L655.125 322.003C665.798 324.589 672.949 327.092 676.58 329.512C682.357 333.308 685.245 339.277 685.245 347.419C685.245 355.286 682.247 362.08 676.25 367.801C670.309 373.523 661.232 376.383 649.019 376.383C635.871 376.383 626.546 373.413 621.045 367.471C615.598 361.475 612.683 354.076 612.297 345.273H626.573ZM700.722 355.011H717.969V373H700.722V355.011ZM775.944 282.641C782.215 282.641 788.294 284.126 794.18 287.097C800.067 290.013 804.55 293.809 807.631 298.485C810.602 302.941 812.582 308.14 813.573 314.081C814.453 318.152 814.893 324.644 814.893 333.556H750.115C750.39 342.523 752.508 349.729 756.469 355.176C760.43 360.567 766.564 363.263 774.871 363.263C782.628 363.263 788.817 360.705 793.438 355.588C796.078 352.618 797.949 349.179 799.049 345.273H813.655C813.27 348.519 811.977 352.15 809.777 356.166C807.631 360.127 805.211 363.373 802.515 365.903C798.004 370.304 792.42 373.275 785.763 374.815C782.188 375.696 778.144 376.136 773.633 376.136C762.63 376.136 753.306 372.147 745.659 364.17C738.012 356.139 734.189 344.916 734.189 330.502C734.189 316.309 738.04 304.784 745.741 295.927C753.443 287.07 763.511 282.641 775.944 282.641ZM799.627 321.755C799.022 315.319 797.619 310.175 795.418 306.324C791.347 299.173 784.553 295.597 775.036 295.597C768.214 295.597 762.493 298.072 757.872 303.023C753.251 307.92 750.803 314.164 750.528 321.755H799.627ZM831.113 259.948H846.131V284.622H860.242V296.752H846.131V354.433C846.131 357.514 847.177 359.577 849.267 360.622C850.422 361.227 852.348 361.53 855.044 361.53C855.759 361.53 856.529 361.53 857.354 361.53C858.179 361.475 859.142 361.392 860.242 361.282V373C858.537 373.495 856.749 373.853 854.878 374.073C853.063 374.293 851.083 374.403 848.937 374.403C842.005 374.403 837.302 372.642 834.826 369.122C832.351 365.546 831.113 360.925 831.113 355.258V296.752H819.148V284.622H831.113V259.948ZM870.108 251.366H884.962V296.587C888.483 292.131 891.646 288.995 894.452 287.18C899.238 284.044 905.207 282.476 912.358 282.476C925.176 282.476 933.868 286.96 938.434 295.927C940.91 300.823 942.148 307.617 942.148 316.309V373H926.882V317.299C926.882 310.808 926.057 306.049 924.406 303.023C921.71 298.182 916.649 295.762 909.223 295.762C903.061 295.762 897.477 297.88 892.471 302.116C887.465 306.352 884.962 314.356 884.962 326.129V373H870.108V251.366Z" fill="white" fill-opacity="0.87"/>
<path d="M386.715 284.622L410.316 356.579L434.989 284.622H451.246L417.908 373H402.064L369.469 284.622H386.715Z" fill="white" fill-opacity="0.49"/>
<path d="M466.145 284.622L489.746 356.579L514.419 284.622H530.676L497.338 373H481.494L448.899 284.622H466.145Z" fill="white" fill-opacity="0.51"/>
<path d="M545.575 284.622L569.176 356.579L593.849 284.622H610.106L576.768 373H560.924L528.329 284.622H545.575Z" fill="white" fill-opacity="0.6"/>
</svg>
