<?xml version="1.0" standalone="no"?>
<!DOCTYPE svg PUBLIC "-//W3C//DTD SVG 20010904//EN"
 "http://www.w3.org/TR/2001/REC-SVG-20010904/DTD/svg10.dtd">
<svg version="1.0" xmlns="http://www.w3.org/2000/svg"
 width="155.000000pt" height="155.000000pt" viewBox="0 0 155.000000 155.000000"
 preserveAspectRatio="xMidYMid meet">
<metadata>
Created by potrace 1.14, written by Peter Selinger 2001-2017
</metadata>
<g transform="translate(0.000000,155.000000) scale(0.100000,-0.100000)"
fill="#000000" stroke="none">
<path d="M659 1531 c-241 -77 -343 -360 -207 -574 116 -183 362 -230 544 -106
126 86 189 257 150 409 -55 214 -277 338 -487 271z m225 -71 c72 -27 139 -88
173 -158 24 -48 28 -69 28 -137 -1 -101 -27 -162 -96 -227 -67 -63 -133 -87
-226 -84 -179 7 -312 152 -300 328 14 213 224 351 421 278z"/>
<path d="M688 695 c-1 -1 -24 -6 -49 -9 -86 -11 -221 -67 -299 -124 -64 -46
-174 -167 -213 -233 -21 -35 -49 -99 -62 -142 -44 -139 -42 -186 7 -174 21 6
26 16 37 74 7 37 33 111 58 163 114 237 377 393 633 376 139 -9 178 -19 295
-79 114 -58 225 -171 282 -287 39 -79 73 -181 73 -221 0 -20 29 -32 55 -23 22
9 16 63 -20 172 -102 304 -388 509 -710 510 -46 0 -85 -1 -87 -3z"/>
</g>
</svg>
